<?xml version="1.0" encoding="utf-8"?>
<!-- Generator: Adobe Illustrator 25.2.3, SVG Export Plug-In . SVG Version: 6.00 Build 0)  -->
<svg version="1.1" id="Layer_1" xmlns="http://www.w3.org/2000/svg" xmlns:xlink="http://www.w3.org/1999/xlink" x="0px" y="0px"
	 viewBox="0 0 340 237" style="enable-background:new 0 0 340 237;" xml:space="preserve">
<style type="text/css">
	.st0{fill:#231F20;}
	.st1{fill:#0054A6;}
	.st2{fill:#ED1C24;}
	.st3{fill:#FFFFFF;}
</style>
<g>
	<path class="st0" d="M35.93,153.73l-17.29-0.3l0.09-5.16l1.85,0.03c0.95,0.02,1.27-0.48,1.3-1.8l0.34-19.67
		c0.02-1.31-0.29-1.78-1.23-1.79l-1.85-0.03l0.09-5.16l17.92,0.31c10.44,0.18,14.19,2.57,14.09,8.59c-0.07,4.1-2.65,6.53-7.62,7.41
		c5.63,0.96,8.53,3.74,8.45,8.39C51.95,151.13,47.53,153.93,35.93,153.73z M32.7,148.52l2.95,0.05c3.8,0.07,5.3-1.27,5.36-4.76
		c0.06-3.64-1.44-4.98-5.34-5.05l-2.79-0.05L32.7,148.52z M35.27,134.35c3.48,0.06,5.03-1.23,5.09-4.46
		c0.06-3.19-1.24-4.52-4.51-4.58l-2.74-0.05l-0.16,9.05L35.27,134.35z"/>
	<path class="st0" d="M75.91,143.05l-9.81-0.17l-1.44,3.77c-0.5,1.41-0.08,1.77,1.13,1.79l1.42,0.02l-0.09,5.16l-13.18-0.23
		l0.09-5.16l1.58,0.03c1.21,0.02,1.43-0.33,2.04-1.79l10.96-26.47l10.75,0.19l9.6,26.82c0.5,1.43,1.02,1.84,2.13,1.86l1.32,0.02
		l-0.09,5.16l-17.71-0.31l0.09-5.16l1.48,0.03c1.16,0.02,1.59-0.38,1.14-1.75L75.91,143.05z M67.66,138.15l7.01,0.12l-3.31-9.87
		L67.66,138.15z"/>
	<path class="st0" d="M95.94,151.66l0.15-8.45l8.22,0.14l-0.08,4.65c1.26,0.48,3.15,0.81,5.05,0.85c2.85,0.05,4.77-1.13,4.8-3.2
		c0.05-2.88-2.37-3.28-7.57-4.58c-6.19-1.62-10.58-4.13-10.47-10.5c0.12-6.98,5.52-11.29,15.28-11.12
		c5.43,0.09,9.47,1.23,12.51,2.54l-0.14,8.14l-8.17-0.14l0.07-4.1c-1.05-0.37-2.62-0.65-4.26-0.68c-3.11-0.05-4.87,1.08-4.91,3.15
		c-0.04,2.53,2.32,2.92,7.26,4.22c5.83,1.52,11.11,3.78,10.99,10.61c-0.12,6.98-4.79,11.4-15.33,11.22
		C103.43,154.32,99.02,153.03,95.94,151.66z"/>
	<path class="st0" d="M128.51,148.29l1.85,0.03c1,0.02,1.27-0.33,1.3-1.75l0.34-19.72c0.03-1.42-0.23-1.77-1.23-1.79l-1.85-0.03
		l0.09-5.16l30.47,0.53l-0.17,9.56l-5.11-0.09l-0.91-2.34c-0.86-1.84-1.65-2.1-4.39-2.15l-5.85-0.1l-0.16,8.9l2.9,0.05
		c1.37,0.02,1.85-0.42,1.88-2.09l0.02-1.21l4.74,0.08l-0.21,12.04l-4.75-0.08l0.02-1.26c0.03-1.67-0.43-2.33-1.8-2.36l-2.9-0.05
		l-0.16,9.25l6.33,0.11c2.74,0.05,3.43-0.04,4.41-2l0.99-2.31l5.11,0.09l-0.17,9.56l-30.89-0.54L128.51,148.29z"/>
	<path class="st0" d="M163.82,148.16l2.27,0.04c1,0.02,1.27-0.33,1.3-1.8l0.34-19.67c0.03-1.42-0.23-1.77-1.23-1.79l-2.27-0.04
		l0.09-5.16l18.66,0.32l4.62,16.27l5.29-16.09l18.19,0.32l-0.09,5.16l-1.84-0.03c-1-0.02-1.27,0.33-1.3,1.75l-0.34,19.67
		c-0.03,1.47,0.23,1.82,1.23,1.84l1.85,0.03l-0.09,5.16l-17.13-0.3l0.09-5.16l1.85,0.03c0.95,0.02,1.27-0.33,1.3-1.8l0.34-19.42
		l-8.69,26.25l-6.85-0.12l-7.24-26.28l-0.33,19.17c-0.03,1.47,0.28,1.83,1.23,1.84l2.21,0.04l-0.09,5.16l-13.44-0.23L163.82,148.16z
		"/>
	<path class="st0" d="M214.53,148.29l1.85,0.03c1,0.02,1.27-0.33,1.3-1.75l0.34-19.72c0.03-1.42-0.23-1.77-1.23-1.79l-1.85-0.03
		l0.09-5.16l30.47,0.53l-0.17,9.56l-5.11-0.09l-0.91-2.34c-0.87-1.84-1.65-2.1-4.39-2.15l-5.85-0.1l-0.16,8.9l2.9,0.05
		c1.37,0.02,1.85-0.42,1.88-2.09l0.02-1.21l4.74,0.08l-0.21,12.04l-4.75-0.08l0.02-1.26c0.03-1.67-0.43-2.33-1.8-2.36l-2.9-0.05
		l-0.16,9.25l6.33,0.11c2.74,0.05,3.43-0.04,4.41-2l0.99-2.31l5.11,0.09l-0.17,9.56l-30.89-0.54L214.53,148.29z"/>
	<path class="st0" d="M263.73,120.07l13.08,18.08l0.19-10.92c0.03-1.42-0.29-1.78-1.23-1.79l-2.21-0.04l0.09-5.16l13.44,0.23
		l-0.09,5.16l-2.27-0.04c-0.95-0.02-1.27,0.33-1.3,1.75l-0.47,26.65l-7.43-0.13l-16.12-22.13l-0.26,14.92
		c-0.03,1.42,0.23,1.77,1.18,1.79l2.27,0.04l-0.09,5.16l-13.44-0.23l0.09-5.16l2.27,0.04c0.95,0.02,1.22-0.33,1.24-1.75l0.34-19.72
		c0.03-1.42-0.23-1.77-1.18-1.79l-2.27-0.04l0.09-5.16L263.73,120.07z"/>
	<path class="st0" d="M297.23,148.41l2.27,0.04c0.95,0.02,1.27-0.33,1.3-1.8l0.38-21.54l-0.53-0.01c-3.11-0.05-4.22,0.33-4.63,2.35
		l-0.46,2.37l-5.06-0.09l0.17-9.86l32.32,0.56l-0.17,9.86l-5.06-0.09l-0.38-2.38c-0.33-2.03-1.49-2.45-4.6-2.51l-0.9-0.02
		l-0.38,21.54c-0.03,1.47,0.23,1.82,1.23,1.84l2.27,0.04l-0.09,5.16l-17.77-0.31L297.23,148.41z"/>
	<path class="st0" d="M44.08,195.62l0.15-8.45l8.22,0.14l-0.08,4.65c1.26,0.48,3.15,0.81,5.05,0.85c2.85,0.05,4.77-1.13,4.8-3.2
		c0.05-2.88-2.37-3.28-7.57-4.58c-6.19-1.62-10.58-4.13-10.47-10.5c0.12-6.98,5.52-11.29,15.28-11.12
		c5.43,0.09,9.47,1.23,12.51,2.54l-0.14,8.14l-8.17-0.14l0.07-4.1c-1.05-0.37-2.62-0.65-4.26-0.68c-3.11-0.05-4.87,1.08-4.91,3.15
		c-0.04,2.53,2.32,2.92,7.26,4.22c5.83,1.52,11.11,3.78,10.99,10.61c-0.12,6.98-4.79,11.4-15.33,11.22
		C51.57,198.28,47.17,196.99,44.08,195.62z"/>
	<path class="st0" d="M85.14,192.37l2.27,0.04c1,0.02,1.27-0.33,1.3-1.8l0.12-6.83l-8.37-13.04c-0.82-1.23-1.34-1.74-2.5-1.76
		l-1.16-0.02l0.09-5.16l17.92,0.31l-0.09,5.16l-1.42-0.02c-1.21-0.02-1.39,0.94-0.72,2.11l4,6.39l4.28-6.65
		c0.6-1.1,0.08-1.72-1.02-1.74l-1.95-0.03l0.09-5.16l14.39,0.25l-0.09,5.16l-1.58-0.03c-1.21-0.02-1.75,0.42-2.56,1.68l-8.6,12.45
		l-0.12,7.13c-0.03,1.47,0.28,1.83,1.23,1.84l2.27,0.04l-0.09,5.16l-17.77-0.31L85.14,192.37z"/>
	<path class="st0" d="M113.91,195.62l0.15-8.45l8.22,0.14l-0.08,4.65c1.26,0.48,3.15,0.81,5.05,0.85c2.85,0.05,4.77-1.13,4.8-3.2
		c0.05-2.88-2.37-3.28-7.57-4.58c-6.19-1.62-10.58-4.13-10.47-10.5c0.12-6.98,5.52-11.29,15.28-11.12
		c5.43,0.09,9.47,1.23,12.51,2.54l-0.14,8.14l-8.17-0.14l0.07-4.1c-1.05-0.37-2.62-0.65-4.26-0.68c-3.11-0.05-4.87,1.08-4.91,3.15
		c-0.04,2.53,2.32,2.92,7.26,4.22c5.83,1.52,11.11,3.78,10.99,10.61c-0.12,6.98-4.79,11.4-15.33,11.22
		C121.41,198.28,117,196.99,113.91,195.62z"/>
	<path class="st0" d="M153.5,192.37l2.27,0.04c0.95,0.02,1.27-0.33,1.3-1.8l0.38-21.54l-0.53-0.01c-3.11-0.05-4.22,0.33-4.63,2.35
		l-0.46,2.37l-5.06-0.09l0.17-9.86l32.32,0.56l-0.17,9.86l-5.06-0.09l-0.38-2.38c-0.33-2.03-1.49-2.45-4.6-2.51l-0.9-0.02
		l-0.38,21.54c-0.03,1.47,0.23,1.82,1.23,1.84l2.27,0.04l-0.09,5.16l-17.77-0.31L153.5,192.37z"/>
	<path class="st0" d="M183.44,192.25l1.85,0.03c1,0.02,1.27-0.33,1.29-1.75l0.35-19.72c0.03-1.42-0.23-1.77-1.23-1.79l-1.85-0.03
		l0.09-5.16l30.47,0.53l-0.17,9.56l-5.11-0.09l-0.91-2.34c-0.86-1.84-1.65-2.1-4.39-2.15l-5.85-0.1l-0.16,8.9l2.9,0.05
		c1.37,0.02,1.85-0.42,1.88-2.09l0.02-1.21l4.74,0.08L207.15,187l-4.74-0.08l0.02-1.26c0.03-1.67-0.43-2.33-1.8-2.36l-2.9-0.05
		l-0.16,9.25l6.33,0.11c2.74,0.05,3.43-0.04,4.41-2l0.99-2.31l5.12,0.09l-0.17,9.56l-30.89-0.54L183.44,192.25z"/>
	<path class="st0" d="M219.01,192.12l2.27,0.04c1,0.02,1.27-0.33,1.3-1.8l0.34-19.67c0.03-1.42-0.23-1.77-1.23-1.79l-2.27-0.04
		l0.09-5.16l18.66,0.32l4.62,16.27l5.29-16.09l18.19,0.32l-0.09,5.16l-1.84-0.03c-1-0.02-1.27,0.33-1.3,1.75l-0.34,19.67
		c-0.03,1.47,0.23,1.82,1.23,1.84l1.85,0.03l-0.09,5.16l-17.13-0.3l0.09-5.16l1.85,0.03c0.95,0.02,1.27-0.33,1.3-1.8l0.34-19.42
		l-8.69,26.25l-6.85-0.12l-7.24-26.28l-0.33,19.17c-0.03,1.47,0.28,1.83,1.23,1.84l2.21,0.04l-0.09,5.16l-13.44-0.23L219.01,192.12z
		"/>
	<path class="st0" d="M270.45,195.62l0.15-8.45l8.22,0.14l-0.08,4.65c1.26,0.48,3.15,0.81,5.05,0.85c2.85,0.05,4.77-1.13,4.8-3.2
		c0.05-2.88-2.37-3.28-7.57-4.58c-6.19-1.62-10.58-4.13-10.47-10.5c0.12-6.98,5.52-11.29,15.28-11.12
		c5.43,0.09,9.47,1.23,12.51,2.54l-0.14,8.14l-8.17-0.14l0.07-4.1c-1.05-0.37-2.62-0.65-4.26-0.68c-3.11-0.05-4.87,1.08-4.91,3.15
		c-0.04,2.53,2.32,2.92,7.26,4.22c5.83,1.52,11.11,3.78,10.99,10.61c-0.12,6.98-4.79,11.4-15.33,11.22
		C277.95,198.28,273.54,196.99,270.45,195.62z"/>
</g>
<g>
	<path class="st1" d="M266.71,31.88L266.71,31.88c0.3-0.01,0.61-0.07,0.91-0.2l0.25-0.11l0.08-0.22c0.33-1.08,1.16-2.33,1.59-3.79
		l0.09-0.3l-0.28-0.18c-0.03,0.01-0.17-0.2-0.3-0.43c-0.14-0.2-0.32-0.58-0.94-0.61c-0.37,0-0.65,0.18-0.9,0.38l-0.12,0.1
		l-0.04,0.14c-0.38,1.42-1.42,2.51-1.65,4.45l-0.03,0.23l0.2,0.15C265.85,31.72,266.26,31.89,266.71,31.88z"/>
	<path class="st1" d="M275.52,28.82c-0.02-0.08-0.04-0.17-0.09-0.26c-0.07-0.2-0.39-0.47-0.79-0.45c-0.03,0.01-0.06,0-0.06,0
		l-0.06,0l-0.05,0.01c-0.41,0.09-0.71,0.4-0.82,0.66c-0.11,0.26-0.14,0.51-0.16,0.76c0,0.03-0.01,0.06-0.01,0.1
		c-0.88,1.37-2.11,2.78-2.99,4.03c-1.64,1.59-3.26,3.64-5.18,4.98c-0.17-0.07-0.38-0.14-0.66-0.14c-0.13,0-0.26,0.02-0.4,0.05
		l-0.17,0.04l-0.12,0.09c-0.28,0.23-0.4,0.55-0.42,0.8c0,0.19,0.02,0.35,0.05,0.51c-0.29,0.22-0.96,0.52-1.61,0.82
		c-0.41,0.18-0.81,0.39-1.16,0.65c-0.34,0.25-0.67,0.62-0.7,1.09c-0.03,0.44,0.19,0.84,0.59,1.24l0.16,0.15l0.24-0.01
		c1.9-0.04,2.95-1.25,3.98-1.85c1.11,0.89,2.2,2.33,4.36,2.36c0.07,0.01,0.14,0.01,0.22,0c1.56-0.08,2.77-1.13,3.66-2.42
		c0.9-1.3,1.5-2.94,1.75-4.45c0.39-2.37,0.59-4.56,0.86-6.74c0.04-0.29,0.1-0.56,0.11-0.85C276.09,29.62,275.98,29.11,275.52,28.82z
		 M272.27,37.98c-0.43,1.45-1.42,3.13-2.14,3.52c-0.22,0.13-0.41,0.16-0.6,0.17c-0.64,0.04-1.5-0.6-2.18-1.17
		c2.05-1.81,3.84-3.87,5.53-5.95C272.76,35.65,272.62,36.87,272.27,37.98z"/>
	<path class="st1" d="M228.22,42.59c0.03-0.24,0.06-0.47,0.07-0.69c0.13-2.2-0.67-4.9-0.44-7.23c0.07-0.77,0.2-1.37,0.23-1.94
		c0.03-0.56-0.1-1.12-0.57-1.63l-0.12-0.14l-0.22-0.04c-0.1-0.01-0.2-0.02-0.29-0.03c-0.64-0.06-1.23,0.35-1.36,0.68
		c-0.17,0.32-0.22,0.61-0.3,0.73c-0.5,0.89-1.42,1.95-2.32,2.99c-1.71,1.95-3.48,3.84-5.68,5.04c-1.04,0.58-2.72,1.44-3.81,1.36
		c-0.12-0.01-0.25-0.02-0.36-0.05c2.57-1.69,6.08-4.21,6.69-7.83c0-0.07,0.02-0.16,0.03-0.24c0.1-1.04-0.15-2.18-1.06-2.75
		l-0.15-0.1l-0.21,0.01c-2.7,0.14-4.93,1.23-6.49,2.83c-1.58,1.6-2.55,3.7-2.93,5.93c-0.08,0.48-0.13,0.96-0.15,1.46
		c-1.06,0.59-2.5,0.95-3.97,1.34l-0.27,0.07l-0.12,0.22c-0.03,0.06-0.03,0.11-0.06,0.16c0.29-1.03,0.65-2.05,1.19-3.09
		c0.81-1.6,2.07-2.97,2.45-4.79c0.02-0.08,0.03-0.16,0.04-0.25c0.07-0.64-0.05-1.27-0.32-1.8c-0.27-0.51-0.67-0.98-1.36-1.06
		c-0.07,0-0.16-0.01-0.23-0.01c-1.29,0.03-2.44,0.96-3.1,1.34c-0.55,0.34-1.04,0.7-1.46,1.03c0.06-1.08-0.31-2.09-1.32-2.5
		c-0.24-0.09-0.49-0.15-0.74-0.13c-1.11,0.01-1.97,0.77-2.54,1.4l-0.15,0.15l0.02,0.19c0.01,0.26,0,0.53,0.03,0.8
		c0.02,0.25,0.12,0.61,0.51,0.79c0.13,0.06,0.28,0.1,0.44,0.1c0.54-0.03,0.83-0.31,1.07-0.52c-0.35,2.08-2.19,4.48-3.27,6.55
		c-0.14,0.27-0.26,0.51-0.35,0.74c-0.03-0.04-0.06-0.07-0.09-0.09l-0.09-0.06l-0.11-0.02c-0.56-0.1-1.12-0.07-1.5-0.13
		c-0.41-0.06-0.51-0.11-0.57-0.3c-0.05-0.18-0.07-0.36-0.03-0.57c0.13-1.42,2.12-3.44,2.74-4.65l0.09-0.2l-0.08-0.18
		c-0.33-0.61-0.66-0.79-0.73-1.01c-0.15-0.31-0.04-0.74-0.3-1.28c-0.55-0.99-1.76-1.85-3.35-1.84c-0.51,0-1.06,0.09-1.61,0.32
		c-1.18,0.47-2.5,1.64-3.35,2.54c-1.24,1.34-2.79,3.64-3.31,5.39c-0.08,0.29-0.14,0.58-0.17,0.88c-0.18,1.56,0.19,3.07,1.07,3.8
		c0.53,0.42,1.17,0.62,1.8,0.63l0.01,0c1.92-0.04,3.68-1.51,4.82-2.66c0.47,1.05,1.73,1.71,2.96,1.73c0.65,0.02,1.34-0.21,1.86-0.7
		c0.07,0.12,0.16,0.23,0.26,0.34l0.07,0.08l0.11,0.04c0.14,0.04,0.28,0.07,0.44,0.06c0.47,0.01,0.87-0.23,1.16-0.49
		c0.87-0.81,1.38-2.19,1.71-2.71c1.6-2.63,3.65-4.73,6.16-5.88c-0.41,1.39-1.31,2.55-2.05,3.89c-0.88,1.61-1.46,3.26-2.01,5.3
		l-0.03,0.1l0.02,0.09c0.06,0.3,0.17,0.62,0.36,0.9c0.18,0.27,0.51,0.55,0.99,0.56c0.42,0,0.81-0.19,1.18-0.51l0.14-0.12l0.04-0.16
		c0.13-0.58,0.28-1.14,0.43-1.7c-0.07,0.71,0.44,1.13,0.53,1.39l0.14,0.29l0.39-0.02c2.08-0.08,3.41-0.91,4.7-1.47
		c0.31,0.27,0.7,0.4,0.99,0.53c0.45,0.19,0.66,0.33,0.7,0.51l0.1,0.34l0.44,0c2.25-0.03,4.09-0.93,5.73-1.62
		c0.11,0.22,0.24,0.52,0.52,0.81c0.87,0.78,2.43,1.11,4.05,1.2c1.07,0.06,2.18-0.02,3.12-0.22c0.94-0.22,1.79-0.55,2.2-1.23
		C228.08,43.26,228.16,42.94,228.22,42.59z M192.65,35.42c-0.06,0.5-0.86,1.42-1.38,2.05c-1.27,1.6-1.88,2.63-3.46,3.88
		c-0.45,0.38-1.49,1.03-1.99,0.99c-0.19,0-0.29-0.04-0.42-0.19c-0.11-0.1-0.18-0.52-0.1-1.03c0.03-0.31,0.11-0.65,0.19-0.95
		c0.56-2.39,3.21-5.45,5.36-6.43c0.08-0.01,0.16-0.02,0.26-0.02c0.38,0,0.81,0.18,1.12,0.5c0.33,0.32,0.49,0.73,0.45,1.14
		C192.65,35.38,192.65,35.4,192.65,35.42z M211.84,39.3c0.85-3,2.39-5.04,5.17-5.86C216.21,36.1,214.2,37.9,211.84,39.3z
		 M225.62,41.46c-0.03,0.18-0.08,0.34-0.16,0.45c-0.05,0.1-0.31,0.27-0.8,0.38c-0.48,0.11-1.12,0.15-1.75,0.12
		c-0.73-0.03-1.46-0.18-1.96-0.37c-0.35-0.14-0.56-0.29-0.65-0.42c1.74-1.52,3.44-3.14,4.95-4.93c0.03,0.63,0.06,1.34,0.11,2.06
		C225.44,39.61,225.74,40.72,225.62,41.46z"/>
	<path class="st1" d="M261.47,33.69c0.01-0.06,0.01-0.08,0.02-0.1c0.04-0.43-0.12-0.81-0.35-1.14c-0.24-0.31-0.51-0.62-1.09-0.66
		c-0.04,0-0.06,0-0.06,0c-0.58,0.04-0.92,0.41-1.12,0.68c-0.22,0.29-0.36,0.59-0.49,0.78c-0.98,1.52-1.61,2.37-3.04,3.93
		c-1.17,1.29-2.39,2.39-3.65,2.96c-0.61,0.28-2.43,1.02-3.44,0.99c-0.19,0-0.34-0.04-0.46-0.07c-0.1-0.05-0.15-0.08-0.13-0.42
		c0.04-0.42,0.32-1.04,0.51-1.49c0.3-0.7,0.6-1.25,0.98-1.76c0.87-1.22,2.32-2.29,2.52-3.66c0-0.01,0-0.02,0-0.03
		c0.02-0.29-0.06-0.63-0.23-0.95c-0.17-0.31-0.48-0.68-1.09-0.69c-0.08,0-0.16,0.01-0.24,0.01c-0.6,0.17-0.73,0.49-0.96,0.78
		c-0.22,0.31-0.41,0.64-0.56,0.85c-2.51,3.42-5.05,6.88-9.17,8.14c-0.56,0.17-1.25,0.32-1.81,0.31c-0.61-0.02-0.98-0.17-1.19-0.56
		c-0.1-0.19-0.11-0.48-0.08-0.86c0.04-0.3,0.11-0.65,0.15-1.02c0.01-0.12,0.03-0.26,0.04-0.39c0.03-0.82-0.07-1.55-0.16-2.17
		c3.25-0.31,6.56-1.2,8.31-3.3c0.43-0.53,0.63-1.15,0.71-1.76c0.13-1.35-0.36-2.75-1.3-3.53c-0.6-0.49-1.34-0.68-2.08-0.69
		c-1.43,0-2.9,0.57-4.11,0.96c2.4-4.68,4.89-9.28,6.88-14.38l0.15-0.4l-0.44-0.15c-0.18-0.03-0.29-0.33-0.74-0.71l-0.55-0.42
		l-0.32,0.65c-2.36,4.89-4.78,9.85-7.69,15.25c-1.24,2.32-2.64,4.95-3.9,7.73c-0.88,1.97-1.71,4.23-2.65,6.07
		c-0.29,0.59-0.9,1.33-1.03,2.08c-0.01,0.05-0.01,0.09-0.01,0.12c0,0.32,0.13,0.6,0.31,0.88c0.19,0.28,0.39,0.55,0.88,0.65
		c0.06,0.01,0.12,0.01,0.19,0.02c0.78,0,1.23-0.53,1.47-0.89c0.26-0.39,0.48-0.74,0.59-0.79l0.22-0.11l0.04-0.23
		c0.32-1.87,1.45-4.23,2.41-6.39c0.15,0.53,0.13,1.19,0.07,1.91c-0.07,1.14-0.28,2.4,0.3,3.48c0.45,0.78,1.54,1.43,2.69,1.64
		c0.25,0.04,0.5,0.05,0.75,0.06c2.43,0.03,4.98-1.25,6.6-2.31c0.36-0.27,0.68-0.57,0.94-0.79c0.25,1.11,1.21,1.84,2.41,1.98
		c0.24,0.02,0.48,0.04,0.72,0.05c2.65,0.04,4.9-1.37,6.55-2.6c-0.77,1.78-1.53,3.56-2.3,5.32l-0.38,0.01
		c-0.01-0.04-0.03-0.1-0.06-0.16c-0.02-0.02-0.05-0.05-0.08-0.09l0.14-0.29l-0.49-0.18c-0.2-0.07-0.4-0.1-0.6-0.11
		c-1.1,0.02-1.85,0.7-2.31,0.8c-1.53,0.46-2.81,1.23-4.1,2.02c-1.08,0.65-2.2,1.5-2.97,1.97c-1.56,0.97-2.79,2.36-4.14,3.33
		l-0.04,0.03l-0.04,0.05c-2.68,2.78-5.75,6.46-6.52,10.78c-0.06,0.31-0.11,0.64-0.14,0.95c-0.17,1.48-0.06,2.89,0.82,4.12
		c0.73,1.01,2.02,1.65,3.46,1.71l0.01,0c0.58,0.02,1.18-0.05,1.77-0.25c1.73-0.58,3.37-1.94,4.79-3.16c1.45-1.26,2.85-2.5,4.01-3.83
		c5.01-5.68,7.81-12.94,10.91-20.15c1.07-2.48,2.16-5.43,3.43-7.98c0.17-0.34,0.51-0.75,0.83-1.15
		C261.05,34.51,261.36,34.17,261.47,33.69z M235.04,34.56c0.3-0.78,0.72-1.49,1.07-2.32c1.26-0.67,3.46-1.76,5.06-1.88
		c0.09-0.01,0.19-0.01,0.29-0.01c1.01,0.05,1.5,0.47,1.46,1.21c0,0.01,0,0.01,0,0.02l0,0.01c0.01,0.28-0.59,0.99-0.94,1.22
		c-1.39,1.03-3.8,1.85-6.14,1.82C235.57,34.61,235.31,34.59,235.04,34.56z M238.45,67.16c-0.87,0.69-2.69,1.94-3.6,1.85
		c-0.09,0-0.16-0.01-0.23-0.03c-0.39-0.1-0.74-0.49-0.93-1.18c-0.2-0.67-0.23-1.54-0.14-2.4c0.04-0.29,0.09-0.57,0.14-0.84
		c0.88-4.07,4.07-7.64,7.21-10.29c2.79-2.36,6.07-4.47,9.48-6.02c0.31-0.18,1.17-0.24,1.66-1.03l0.36-0.66
		C248.88,54.56,245.02,62.18,238.45,67.16z"/>
	<path class="st1" d="M188.59,20.07c0.44-1.46,1.01-3.56,1.24-5.55c0.14-1.24,0.16-2.42-0.09-3.42c-0.33-1.34-1.6-3.17-3.52-3.14
		c-0.12,0.01-0.24,0.01-0.36,0.02c-1.13,0.14-2.35,0.84-3.16,1.4c-1.73,1.2-3.28,3.34-4.44,5.24c-1.63,2.66-2.54,6.51-2.98,10.08
		c-0.09,0.72-0.16,1.43-0.21,2.11c-0.23,3.13,0.19,6.64,0.96,9.12c0.14,0.42,0.31,0.9,0.63,1.29c0.3,0.4,0.78,0.74,1.43,0.74
		c0.02-0.01,0.05,0,0.07,0l0.48-0.01l0.05-0.46c0.09-0.98-0.36-1.72-0.54-2.41c-0.2-0.77-0.43-1.55-0.57-2.35
		c-0.46-2.67-0.38-5.36-0.05-8.05c0.1-0.84,0.23-1.67,0.37-2.52c0.47-2.77,3.2-8.26,5.2-9.97c0.91-0.79,2.29-1.71,3.19-1.7
		c0.07,0,0.15,0,0.22,0.01c0.62,0.09,0.87,0.39,1.05,0.99c0.16,0.59,0.13,1.44,0.06,2.33c-0.01,0.21-0.03,0.42-0.06,0.63
		c-0.38,3.27-1.65,6.28-2.71,9.03c-1.26,3.25-2.35,6.52-3.36,9.32c-0.15,0.4-0.46,0.84-0.7,1.4c-0.24,0.59-0.29,1.13-0.44,1.49
		c-0.28,0.66-0.7,1.41-1.06,2.19c-0.26,0.57-0.52,1.16-0.77,1.76c0,0,0-0.02,0-0.02c-0.02-0.11-0.08-0.32-0.29-0.45l-0.11-0.08
		l-0.16,0.01c-1.51,0.12-2.62,1.23-3.57,1.92c-1,0.74-2.11,1.49-3.16,2.18c-1.06,0.7-2.11,1.54-3.12,2.36
		c-3.1,2.51-5.75,5.1-7.9,8.77c-1.24,2.12-2.38,4.58-2.77,7.53c-0.05,0.35-0.08,0.71-0.1,1.07c-0.13,1.98,0,4.48,0.72,6.65
		c0.71,2.17,2.06,4.05,4.41,4.56c0.34,0.07,0.66,0.11,0.96,0.11c0.02,0.01,0.03,0.01,0.05,0.01c1.01,0.02,1.84-0.42,2.41-1.08
		c0.58-0.68,0.99-1.53,1.46-2.48c1.85-3.73,4.07-7.3,5.78-10.93c1.24-2.62,2.24-5.23,3.31-7.86c1.07-2.63,1.92-5.39,2.99-8.12
		c1.02-2.6,2.21-5.18,3.25-7.72c1.07-2.61,2.08-5.25,3.01-7.97C186.61,25.53,187.73,22.89,188.59,20.07z M173.67,52.42
		c-2.08,5.39-5.11,10.43-7.76,15.68c-0.34,0.68-0.78,1.64-1.23,2.45c-0.43,0.82-1,1.4-1.07,1.36c-0.03,0.01-0.08,0.02-0.13,0.01
		c-0.42,0.02-1.29-0.43-1.58-0.69c-0.98-0.84-1.5-2.53-1.83-4.14c-0.31-1.5-0.41-3.01-0.18-4.84c0.05-0.33,0.11-0.67,0.16-1.02
		c0.97-5.12,4.08-9.17,7.46-12.22c3.04-2.74,6.55-5.08,9.94-7.33c0.09-0.05,0.19-0.11,0.32-0.18
		C176.35,45.1,175.04,48.85,173.67,52.42z"/>
	<path class="st1" d="M163.79,44.57c1.27,0.28,2.49,0.45,3.14-0.43c0.14-0.7,0-1.51-0.53-1.85c-1.12-0.71-5.31-1.31-7.15-1.01
		c-0.79,0.12-2.37,0.27-2.9,0.01c-0.17-0.1-0.15-0.11-0.23-0.29c1.01-2.57,2.03-5.13,3.04-7.69c0.31-1.21-0.55-2.47-1.81-2.09
		c-0.97,0.46-1.63,1.91-2.26,2.75c-1.25,1.68-2.54,2.91-4.51,3.91c-0.73,0.38-1.96,1.11-3.07,0.83c-0.02-0.09-0.04-0.19-0.06-0.29
		c0.64-0.95,1.75-2.12,2.01-3.32c0.26-1.16-0.6-2.23-1.81-1.91c-0.81,0.22-1.58,1.77-2.08,2.39c-1.47,1.87-3.09,3.83-5.55,4.73
		c-0.1-0.06-0.19-0.11-0.29-0.17c0.3-2.67,3.27-4.93,0.14-7.38c-0.5-0.39-1.13-1.04-2.21-0.81c-1.71,0.38-4.65,4.52-5.6,5.96
		c-0.62,0.93-1.36,2.48-2.66,2.69c-0.06-0.04-0.12-0.08-0.17-0.12c0.24-2.53,2.06-4.61,0.13-7.15c-0.4-0.53-1.05-1.11-2.21-0.85
		c-3.81,0.84-5.42,7.49-8.78,9.1c-0.18-0.12-0.15-0.05-0.23-0.29c-0.46-1.83,2.81-5.01,1.82-7.57c-0.75-1.92-3.63-3.25-6.22-2.18
		c-1.4,0.59-2.53,1.63-3.7,2.47c-2.49,1.77-4.9,3.35-7.23,5.21c-0.57,0.56-1.16,1.13-1.73,1.69c-0.01,0-0.12,0.1-0.29,0.27
		c-0.68-1.83-1.49-3.69-1.96-4.73c-0.18-0.39-0.41-0.87-0.72-1.38c0.98-1.31,1.97-2.75,2.99-4.23c1.96-2.85,3.95-5.81,5.68-8.13
		c5.82-1.11,7.68-1.64,9.24-2.48c1.27-0.76,2.65-1.96,3.83-3.36c1.16-1.41,2.15-2.95,2.34-4.68c0.04-0.44,0.01-0.9-0.11-1.36
		l-0.02-0.08l-0.03-0.08c-0.5-1.25-1.75-1.81-2.64-1.85c-1.18-0.08-2.08,0.23-2.59,0.45c-0.24,0.11-1.58,0.69-3.38,2.08
		c-1.8,1.39-4.16,3.61-6.7,7.11c-0.44,0.5-0.89,1.05-1.36,1.65c-1.81,0.12-3.39,0.09-4.81-0.04c-5.06-0.46-7.72-2.18-9.19-3.7
		c-0.73-0.77-1.17-1.49-1.41-2.01c-0.12-0.26-0.2-0.47-0.25-0.6c-0.02-0.07-0.03-0.11-0.04-0.14l0-0.01
		c-0.16-0.73-0.88-1.19-1.61-1.03c-0.73,0.16-1.2,0.88-1.04,1.61c0.03,0.16,0.47,2.05,2.4,4.05c1.92,2,5.31,4.03,10.9,4.52
		c0.94,0.08,1.93,0.13,2.99,0.12c-1.43,2.01-2.93,4.24-4.42,6.4c-0.83,1.21-1.66,2.4-2.47,3.51c-0.95-0.98-2.2-1.91-3.85-2.57
		c-0.75-0.31-1.52-0.46-2.28-0.53c-3.49-0.29-6.96,1.25-8.72,1.89c-1.31,0.51-3.33,1.71-5.15,2.83c-1.8,1.11-3.32,2.12-3.32,2.13
		c-0.03,0.02-1.08,0.7-2.22,1.82c-1.11,1.12-2.4,2.68-2.61,4.76c-0.04,0.46-0.02,0.94,0.08,1.43c0.18,0.91,0.71,1.78,1.68,2.79
		c1.02,1.01,2.58,1.94,4.66,2.12c0.01,0,0.01,0,0.02,0c0.48,0.04,0.99,0.04,1.52-0.01c5.01-0.45,11.59-4.48,17.15-8.99
		c0.92-0.74,1.91-1.8,2.94-3.06c0.02,0.04,0.05,0.09,0.07,0.14c0.54,1.18,1.64,3.79,2.32,5.77c-0.5,0.52-0.91,0.95-1.02,1.06
		c-1.44,1.71-2.89,3.42-4.33,5.14c-0.96,1.27-2.56,3.52-0.21,4.48c1.09-0.11,3.2-3.64,3.86-4.55c1.08-1.23,2.15-2.47,3.23-3.71
		c0.17,0.02,0.35,0.02,0.53-0.02c0.72-0.19,1.16-0.92,0.98-1.65c0.86-1.09,5.72-5.08,5.72-5.08s-0.47,2.02-0.33,2.93
		c0.13,0.91,0.14,2.24,1.69,3.46c1.77,1.22,4.95-1.42,6.5-2.94c0.08-0.01,0.15-0.01,0.23,0c0.35,0.55,0.49,1.39,1,1.79
		c1.51,1.19,3.19,0.17,4.23-0.66c1.91-1.53,4.65-7.32,6.7-7.71c0.02,0.01,0.04,0,0.06,0c0.22,0.94-0.55,1.99-0.8,2.79
		c-0.7,2.28-0.16,4.71,1.88,5.22c1.58,0.39,2.74-0.77,3.54-1.41c1.63-1.32,4.34-6.9,6.17-7.25c0.02,0.01,0.04,0,0.06,0
		c0.32,1.39-2.07,3.39-1.48,6.06c0.2,0.91,0.71,1.47,1.46,1.85c2.73,1.37,4.71-1.21,6.26-2.13c0.77,0.1,1.26,0.75,2.15,0.91
		c2.76,0.52,5.04-1.75,6.83-2.35c0.03,0,0.05,0,0.06,0c0.16,0.59-0.36,1.96-0.74,2.27c-2.36,0.77-4.71,1.53-7.07,2.3
		c-4.53,1.98-10.74,5.92-12.89,10.18c-1.41,2.81-1.3,7.19,0.51,9.53c1.94,2.5,5.56,1.93,8.24,0.54c5.37-2.76,7.92-7.84,10.33-13.53
		c0.42-1.01,2.14-5.9,2.69-6.29C156.16,43.58,162.14,44.19,163.79,44.57z M115.05,13.53c1.63-1.24,2.6-1.65,2.87-1.77
		c0.07-0.05,0.77-0.26,1.16-0.22c0.02,0.01,0.03,0.01,0.04,0.01c0.3,0.06,0.3,0.05,0.35,0.14c0.01,0.08,0.02,0.17,0,0.29
		c-0.03,0.69-0.72,2.02-1.72,3.17c-0.97,1.17-2.23,2.24-3.08,2.74c-0.81,0.44-1.98,0.86-5.32,1.57
		C111.57,16.53,113.56,14.69,115.05,13.53z M91.67,38.41c-5.28,4.37-11.9,8.17-15.67,8.41c-0.38,0.03-0.74,0.03-1.07,0
		c-1.4-0.13-2.36-0.72-3.02-1.36c-0.33-0.32-0.57-0.66-0.72-0.92c-0.08-0.13-0.13-0.24-0.16-0.33c-0.01-0.03-0.02-0.05-0.02-0.07
		l-0.01-0.04l-0.01-0.07c-0.04-0.21-0.05-0.41-0.04-0.63c0.06-0.95,0.88-2.18,1.82-3.08c0.46-0.45,0.92-0.83,1.26-1.09
		c0.34-0.26,0.54-0.38,0.54-0.38c0.01-0.01,1.5-1,3.26-2.09c1.74-1.08,3.83-2.29,4.67-2.6c1.81-0.69,5.02-1.97,7.53-1.73
		c0.55,0.05,1.05,0.16,1.5,0.35c1.43,0.58,2.46,1.4,3.21,2.26C93.55,36.57,92.49,37.78,91.67,38.41z M110.15,43.03
		c-0.57-0.19-0.44-0.51-0.59-0.63c-0.47-2.47,1.64-5.01,2.45-5.95c0.79-0.95,2.4-2.1,3.39-2.29c0.99-0.19,1.75,0.04,1.75,1.42
		C117.16,36.93,111.48,43.68,110.15,43.03z M149.48,50.27c-1.92,4.48-3.89,8.25-7.61,10.91c-0.97,0.69-4.47,2.83-6.08,1.61
		c-1.95-1.48-1-6.07,0.07-7.62c2.56-3.69,7.06-6.48,11.4-8.37c1.23-0.45,2.47-0.9,3.7-1.35c0.14,0.02,0.27,0.04,0.41,0.06
		C151.5,46.58,149.93,49.23,149.48,50.27z"/>
</g>
<g>
	<path class="st2" d="M77.45,103.43l-13.93-0.24l-2.48,4.82l-7.76-0.13l13.57-25.16l8.09,0.14l12.69,25.62l-7.87-0.14L77.45,103.43z
		 M74.97,98.13l-4.23-9.07l-4.58,8.92L74.97,98.13z"/>
	<path class="st2" d="M117.69,88.94l-10.55-0.18l-0.34,19.48l-7.4-0.13l0.34-19.48l-10.48-0.18l0.1-5.91l28.44,0.49L117.69,88.94z"
		/>
	<path class="st2" d="M147.43,102.46l-0.1,5.95l-24.48-0.42l0.44-25.39l7.4,0.13l-0.34,19.44L147.43,102.46z"/>
	<path class="st2" d="M175.57,103.43l-13.93-0.24l-2.48,4.82l-7.76-0.13l13.57-25.16l8.09,0.14l12.69,25.62l-7.87-0.14
		L175.57,103.43z M173.09,98.13l-4.23-9.07l-4.58,8.92L173.09,98.13z"/>
	<path class="st2" d="M220.99,83.04l-0.44,25.39l-6.49-0.11l-16.11-16.97l-0.29,16.68l-7.14-0.12l0.44-25.39l7.83,0.13l14.79,15.78
		l0.27-15.52L220.99,83.04z"/>
	<path class="st2" d="M254.67,88.94l-10.55-0.18l-0.34,19.48l-7.4-0.13l0.34-19.48l-10.48-0.18l0.1-5.91l28.44,0.49L254.67,88.94z"
		/>
	<path class="st2" d="M279.96,103.43l-13.93-0.24l-2.48,4.82l-7.76-0.13l13.57-25.16l8.09,0.14l12.69,25.62l-7.87-0.14
		L279.96,103.43z M277.48,98.13l-4.23-9.07l-4.58,8.92L277.48,98.13z"/>
</g>
<g>
	<path class="st0" d="M129.19,222.01c0,1.86-1.77,3.16-5.12,3.16c-2.39,0-4.34-0.68-5.78-1.9l1.24-1.47
		c1.16,1.07,2.66,1.57,4.59,1.57c1.92,0,2.89-0.37,2.89-1.15c0-0.78-0.97-1-3.15-1.19c-2.7-0.23-5.22-0.82-5.22-2.85
		c0-1.97,2.11-3.05,5.03-3.05c2.07,0,3.85,0.51,5.05,1.45l-1.19,1.5c-1.04-0.8-2.32-1.12-3.86-1.13c-1.28-0.02-2.85,0.21-2.85,1.08
		c0,0.81,1.35,0.89,3.23,1.04C127.07,219.3,129.19,219.93,129.19,222.01z"/>
	<path class="st0" d="M132.58,215.49c0-0.64,0.53-1.07,1.27-1.07c0.73,0,1.24,0.43,1.24,1.07c0,0.61-0.51,1.05-1.24,1.05
		C133.11,216.54,132.58,216.09,132.58,215.49z M134.92,224.88h-2.09v-7.45h2.09V224.88z"/>
	<path class="st0" d="M139.36,224.88v-7.45h2.1v1.31c0.61-0.99,1.81-1.58,3.24-1.58c2.23,0,3.38,1.42,3.38,3.41v4.31h-2.09v-4.17
		c0-1.22-0.65-1.88-1.89-1.88c-1.11,0-2.03,0.51-2.63,1.58v4.47H139.36z"/>
	<path class="st0" d="M156.08,225.17c-2.92,0-4.72-1.55-4.72-4.01c0-2.47,1.8-4.03,4.72-4.03c2.12,0,3.53,0.92,4.15,2.05l-1.93,0.76
		c-0.43-0.82-1.26-1.12-2.2-1.12c-1.55,0-2.7,0.77-2.7,2.34c0,1.54,1.15,2.33,2.7,2.33c0.95,0,1.8-0.31,2.26-1.16l1.92,0.77
		C159.64,224.26,158.22,225.17,156.08,225.17z"/>
	<path class="st0" d="M167.66,223.58c1.28,0,2.1-0.34,2.86-0.96l1.12,1.23c-1.04,0.92-2.38,1.32-4.09,1.32
		c-3.07,0-4.84-1.54-4.84-4.01c0-2.48,1.76-4.03,4.69-4.03c2.7,0,4.51,1.38,4.51,4.01c0,0.24-0.01,0.37-0.05,0.49h-7.13
		C164.92,222.97,165.93,223.58,167.66,223.58z M164.83,220.3l5.09-0.03c-0.32-1.07-1.17-1.54-2.5-1.54
		C166.06,218.73,165.12,219.24,164.83,220.3z"/>
	<path class="st0" d="M182.52,217.81c-0.8,0.58-1.8,0.89-2.86,1.07v-1.82c1.22-0.17,2.5-0.85,3.39-1.63h1.64v9.46h-2.16V217.81z"/>
	<path class="st0" d="M199.01,220.15c0,3.08-2.16,5.02-5.72,5.02c-2.13,0-3.73-0.61-4.77-1.62l1.28-1.26
		c0.86,0.82,2.03,1.2,3.28,1.2c2.15,0,3.72-0.84,3.73-3.31c-0.97,0.91-2.58,1.42-4.16,1.42c-2.07,0-4.43-0.89-4.43-3.14
		c0-1.95,1.86-3.35,5.07-3.35C196.84,215.12,199.01,217.07,199.01,220.15z M193.12,220.04c1.22,0,2.61-0.42,3.53-1.23
		c-0.45-1.47-1.7-2.01-3.35-2.01c-1.73,0-2.89,0.54-2.89,1.69C190.4,219.66,191.58,220.04,193.12,220.04z"/>
	<path class="st0" d="M212.31,222.26c0,1.84-2.2,2.92-5.35,2.92c-3.15,0-5.34-1.08-5.34-2.92c0-1.45,1.39-2.16,2.68-2.34
		c-1.3-0.14-2.31-0.93-2.31-2.13c0-1.76,2.24-2.66,4.97-2.66c2.73,0,4.99,0.91,4.99,2.66c0,1.2-1.03,2-2.31,2.13
		C210.91,220.09,212.31,220.81,212.31,222.26z M210.06,222.12c0-1-1.32-1.43-3.09-1.43c-1.77,0-3.09,0.43-3.09,1.43
		c0,0.99,1.32,1.44,3.09,1.44C208.73,223.57,210.06,223.16,210.06,222.12z M206.96,219.24c1.5,0,2.81-0.34,2.81-1.26
		c0-0.92-1.31-1.26-2.81-1.26c-1.49,0-2.8,0.34-2.8,1.26C204.16,218.9,205.47,219.24,206.96,219.24z"/>
	<path class="st0" d="M221.43,217.23h-7.16v-1.81h9.8v1.42l-5.28,8.04h-2.47L221.43,217.23z"/>
</g>
<g>
	<rect x="241.99" y="212.61" class="st2" width="80.91" height="4.91"/>
	<rect x="241.99" y="222.42" class="st2" width="80.91" height="4.91"/>
</g>
<g>
	<rect x="19.14" y="212.61" class="st1" width="81.22" height="14.72"/>
	<g>
		<polygon class="st3" points="44.85,215.67 46.19,218.39 49.19,218.82 47.02,220.94 47.54,223.93 44.85,222.52 42.17,223.93 
			42.68,220.94 40.51,218.82 43.51,218.39 		"/>
		<polygon class="st3" points="29.96,215.67 31.3,218.39 34.3,218.82 32.13,220.94 32.64,223.93 29.96,222.52 27.27,223.93 
			27.79,220.94 25.62,218.82 28.62,218.39 		"/>
		<polygon class="st3" points="59.75,215.67 61.09,218.39 64.09,218.82 61.92,220.94 62.43,223.93 59.75,222.52 57.07,223.93 
			57.58,220.94 55.41,218.82 58.41,218.39 		"/>
		<polygon class="st3" points="74.65,215.67 75.99,218.39 78.99,218.82 76.82,220.94 77.33,223.93 74.65,222.52 71.96,223.93 
			72.48,220.94 70.31,218.82 73.31,218.39 		"/>
		<polygon class="st3" points="89.54,215.67 90.89,218.39 93.89,218.82 91.71,220.94 92.23,223.93 89.54,222.52 86.86,223.93 
			87.37,220.94 85.2,218.82 88.2,218.39 		"/>
	</g>
</g>
</svg>
